<svg xmlns="http://www.w3.org/2000/svg" width="980" height="270"><style>text{font-family:Arial,'Microsoft YaHei';font-size:14px}.n{fill:#e8f2ff;stroke:#2878b5;stroke-width:2}.s{fill:#eef9ed;stroke:#4b9b55;stroke-width:2}.a{stroke:#555;stroke-width:2;marker-end:url(#m)}</style><defs><marker id="m" markerWidth="8" markerHeight="8" refX="7" refY="3" orient="auto"><path d="M0,0L8,3L0,6z"/></marker></defs><text x="25" y="30" font-size="20">离线存储数据流（E-RMS / E-HISTORY）</text><rect class="n" x="30" y="110" width="160" height="55"/><text x="48" y="143">投递失败/超限</text><rect class="s" x="280" y="65" width="180" height="55"/><text x="298" y="98">Redis ZSet offline</text><rect class="s" x="280" y="170" width="180" height="55"/><text x="310" y="203">MySQL im_message</text><rect class="n" x="580" y="110" width="160" height="55"/><text x="600" y="143">pull(cursor,limit)</text><rect class="n" x="810" y="110" width="130" height="55"/><text x="843" y="143">客户端</text><path class="a" d="M190 137H280M190 145L280 197M460 92L580 125M460 197L580 150M740 137H810"/><text x="320" y="145">按 score / createdAt</text></svg>
